<svg width="50" height="50" viewBox="0 0 50 50" fill="none" xmlns="http://www.w3.org/2000/svg">
<path fill-rule="evenodd" clip-rule="evenodd" d="M25.0001 20.6001C25.1119 20.6001 25.1679 20.7353 25.0888 20.8143L24.4888 21.4143C24.3026 21.6006 24.3026 21.9026 24.4888 22.0888L25.1415 22.7415C25.532 23.132 26.1652 23.132 26.5557 22.7415L29.19 20.1072C29.5806 19.7167 29.5806 19.0835 29.19 18.693L26.5557 16.0587C26.1652 15.6681 25.532 15.6681 25.1415 16.0587L24.4888 16.7114C24.3026 16.8976 24.3026 17.1996 24.4888 17.3859L25.0888 17.9859C25.1679 18.0649 25.1119 18.2001 25.0001 18.2001V18.2001C20.8027 18.2001 17.4001 21.6027 17.4001 25.8001C17.4001 29.9975 20.8027 33.4001 25.0001 33.4001C28.8593 33.4001 32.0466 30.5237 32.5352 26.7978C32.607 26.2502 32.1524 25.8001 31.6001 25.8001H31.2001C30.6478 25.8001 30.2101 26.2521 30.1052 26.7943C29.6412 29.1906 27.532 31.0001 25.0001 31.0001C22.1282 31.0001 19.8001 28.672 19.8001 25.8001C19.8001 22.9282 22.1282 20.6001 25.0001 20.6001V20.6001Z" fill="white"/>
</svg>
