<svg width="50" height="50" viewBox="0 0 50 50" fill="none" xmlns="http://www.w3.org/2000/svg">
<path d="M27 16L27 16.5C27 17.0523 27.4477 17.5 28 17.5L31.5 17.5C32.0523 17.5 32.5 17.9477 32.5 18.5L32.5 22C32.5 22.5523 32.9477 23 33.5 23L34 23C34.5523 23 35 22.5523 35 22L35 16C35 15.4477 34.5523 15 34 15L28 15C27.4477 15 27 15.4477 27 16Z" fill="white"/>
<path d="M23 34L23 33.5C23 32.9477 22.5523 32.5 22 32.5L18.5 32.5C17.9477 32.5 17.5 32.0523 17.5 31.5L17.5 28C17.5 27.4477 17.0523 27 16.5 27L16 27C15.4477 27 15 27.4477 15 28L15 34C15 34.5523 15.4477 35 16 35L22 35C22.5523 35 23 34.5523 23 34Z" fill="white"/>
<path d="M16 23H16.5C17.0523 23 17.5 22.5523 17.5 22L17.5 18.5C17.5 17.9477 17.9477 17.5 18.5 17.5L22 17.5C22.5523 17.5 23 17.0523 23 16.5V16C23 15.4477 22.5523 15 22 15L16 15C15.4477 15 15 15.4477 15 16L15 22C15 22.5523 15.4477 23 16 23Z" fill="white"/>
<path d="M34 27L33.5 27C32.9477 27 32.5 27.4477 32.5 28L32.5 31.5C32.5 32.0523 32.0523 32.5 31.5 32.5L28 32.5C27.4477 32.5 27 32.9477 27 33.5L27 34C27 34.5523 27.4477 35 28 35L34 35C34.5523 35 35 34.5523 35 34L35 28C35 27.4477 34.5523 27 34 27Z" fill="white"/>
</svg>
