<svg width="50" height="50" viewBox="0 0 50 50" fill="none" xmlns="http://www.w3.org/2000/svg">
<path fill-rule="evenodd" clip-rule="evenodd" d="M24.9999 20.6001C24.8881 20.6001 24.8321 20.7353 24.9112 20.8143L25.5112 21.4143C25.6974 21.6006 25.6974 21.9026 25.5112 22.0888L24.8585 22.7415C24.468 23.132 23.8348 23.132 23.4443 22.7415L20.81 20.1072C20.4194 19.7167 20.4194 19.0835 20.81 18.693L23.4443 16.0587C23.8348 15.6681 24.468 15.6681 24.8585 16.0587L25.5112 16.7114C25.6974 16.8976 25.6974 17.1996 25.5112 17.3859L24.9112 17.9859C24.8321 18.0649 24.8881 18.2001 24.9999 18.2001V18.2001C29.1973 18.2001 32.5999 21.6027 32.5999 25.8001C32.5999 29.9975 29.1973 33.4001 24.9999 33.4001C21.1407 33.4001 17.9534 30.5237 17.4648 26.7978C17.393 26.2502 17.8476 25.8001 18.3999 25.8001H18.7999C19.3522 25.8001 19.7899 26.2521 19.8948 26.7943C20.3588 29.1906 22.468 31.0001 24.9999 31.0001C27.8718 31.0001 30.1999 28.672 30.1999 25.8001C30.1999 22.9282 27.8718 20.6001 24.9999 20.6001V20.6001Z" fill="white"/>
</svg>
