<svg width="50" height="50" viewBox="0 0 50 50" fill="none" xmlns="http://www.w3.org/2000/svg">
<rect opacity="0.01" width="50" height="50" fill="black"/>
<path d="M33.2889 27.0708L35.7 26.394V23.5598L33.2889 22.7984C32.9505 22.7138 31.5969 22.2485 32.3583 20.7257L33.585 18.4838L31.3854 16.2842L29.1435 17.4686C28.8897 17.6378 27.4938 18.3146 27.0285 16.5803L26.3094 14H23.2214L22.4177 16.6226C22.4177 16.6226 22.037 18.4415 20.3873 17.5109L18.1031 16.3265L15.9458 18.4838L17.1725 20.6834C17.1725 20.6834 18.1877 22.2485 16.4111 22.8407L14 23.5175V26.3517L16.4111 27.1131C16.7495 27.1977 18.1031 27.663 17.3417 29.1858L16.115 31.4277L18.3146 33.6273L20.5565 32.4429C20.8103 32.2737 22.2062 31.5969 22.6715 33.3312L23.3906 35.9115H26.4786L27.2823 33.2889C27.2823 33.2889 27.663 31.47 29.3127 32.4006L31.5969 33.585L33.7965 31.3854L32.5698 29.1858C32.4852 29.2281 31.47 27.6207 33.2889 27.0708ZM24.8288 29.1858C22.5023 29.1858 20.5988 27.2823 20.5988 24.9557C20.5988 22.6292 22.5023 20.7257 24.8288 20.7257C27.1554 20.7257 29.0589 22.6292 29.0589 24.9557C29.0589 27.2823 27.1554 29.1858 24.8288 29.1858Z" fill="white"/>
</svg>
