<svg width="50" height="50" viewBox="0 0 50 50" fill="none" xmlns="http://www.w3.org/2000/svg">
<path d="M20.2809 21.7593C20.0996 21.9146 19.8688 22 19.6301 22H16C15.4477 22 15 22.4477 15 23V27C15 27.5523 15.4477 28 16 28H19.6301C19.8688 28 20.0996 28.0854 20.2809 28.2407L25.3492 32.585C25.9979 33.141 27 32.6801 27 31.8258V18.1742C27 17.3199 25.9979 16.859 25.3492 17.415L20.2809 21.7593Z" fill="white"/>
<path d="M29 27.1998C29 27.7521 29.4585 28.2153 29.9841 28.0456C31.2699 27.6305 32.2 26.4238 32.2 24.9998C32.2 23.5758 31.2699 22.3691 29.9841 21.954C29.4585 21.7843 29 22.2475 29 22.7998V27.1998Z" fill="white"/>
<path fill-rule="evenodd" clip-rule="evenodd" d="M35 25.0001C35 22.0256 32.8356 19.5567 29.9958 19.0824C29.4511 18.9914 29 18.5524 29 18.0001V17.6001C29 17.0478 29.4498 16.5939 29.9982 16.6588C34.1669 17.1524 37.4 20.6987 37.4 25.0001C37.4 29.3015 34.1669 32.8478 29.9982 33.3414C29.4498 33.4063 29 32.9524 29 32.4001V32.0001C29 31.4478 29.4511 31.0088 29.9958 30.9178C32.8356 30.4435 35 27.9746 35 25.0001Z" fill="white"/>
</svg>
