<svg width="50" height="50" viewBox="0 0 50 50" fill="none" xmlns="http://www.w3.org/2000/svg">
<path d="M20.2809 21.7593C20.0996 21.9146 19.8688 22 19.6301 22H16C15.4477 22 15 22.4477 15 23V27C15 27.5523 15.4477 28 16 28H19.6301C19.8688 28 20.0996 28.0854 20.2809 28.2407L25.3492 32.585C25.9979 33.141 27 32.6801 27 31.8258V18.1742C27 17.3199 25.9979 16.859 25.3492 17.415L20.2809 21.7593Z" fill="white"/>
<rect x="33.0972" y="22.1714" width="1.6" height="6.4" rx="0.8" transform="rotate(45 33.0972 22.1714)" fill="white"/>
<rect x="28.5715" y="23.3032" width="1.6" height="6.4" rx="0.8" transform="rotate(-45 28.5715 23.3032)" fill="white"/>
</svg>
